<?xml version="1.0" encoding="utf-8"?>
<!-- Generator: Adobe Illustrator 19.1.0, SVG Export Plug-In . SVG Version: 6.00 Build 0)  -->
<svg version="1.1" id="Layer_1" xmlns="http://www.w3.org/2000/svg" xmlns:xlink="http://www.w3.org/1999/xlink" x="0px" y="0px"
	 viewBox="0 0 1280 800" style="enable-background:new 0 0 1280 800;" xml:space="preserve">
<style type="text/css">
	.st0{opacity:0.4;fill:#FFFFFF;}
	.st1{fill:#FFFFFF;}
	.st2{opacity:0.6;}
</style>
<g>
	<path class="st0" d="M208.6,23c-0.5-4.1-3.4-6-9.3-6c-5.2,0-8.6,1.7-8.6,4.4c0,1.3,1,2.5,2.5,3c1.3,0.5,2.5,0.7,8,1.6
		c8.9,1.4,10.1,1.7,12,3.1c2.1,1.5,3.2,3.9,3.2,6.8c0,6.8-5.8,10.6-16.4,10.6c-10.6,0-15.9-3.5-17.1-11.5h6.7
		c0.5,4.2,4.1,6.4,10.5,6.4c6.2,0,9.7-1.7,9.7-4.8c0-1.3-0.7-2.5-2-3c-1.3-0.5-1.3-0.5-8.1-1.6c-6.3-1-8-1.4-10.2-2.3
		c-3.2-1.3-5.2-4.2-5.2-7.6c0-6.3,5.7-10.1,15.4-10.1c9.7,0,14.7,3.5,15.5,11.1H208.6z"/>
	<path class="st0" d="M257.5,29.4c0,9.8-8,16.9-19.1,16.9c-11.2,0-19.1-7.1-19.1-17.3c0-10.2,7.8-17.2,19.3-17.2
		C249.8,11.9,257.5,19.1,257.5,29.4z M226,29.1c0,7.3,5,12.2,12.4,12.2c7.3,0,12.4-4.9,12.4-11.9c0-7.4-4.9-12.4-12.3-12.4
		C231,17,226,21.8,226,29.1z"/>
	<path class="st0" d="M278.6,18.1H271v27.4h-6.4V18.1h-5v-5.3h5V8.8c0-6.3,2.3-8.3,9.6-8.3c1.7,0,2.7,0.1,4.5,0.3v5.6
		c-1.5-0.1-2.2-0.1-3.7-0.1c-3.3,0-4,0.5-4,3v3.5h7.6V18.1z"/>
	<path class="st0" d="M291.1,12.8h7.6v5.3h-7.6v18.9c0,3,0.8,3.7,4.1,3.7c1.3,0,2-0.1,3.5-0.3v5.4c-2.5,0.3-3.7,0.5-5.2,0.5
		c-3.3,0-5.8-0.7-7.2-2.1c-1.3-1.3-1.7-2.7-1.7-6.9V18.1h-4.3v-5.3h4.3V3.7h6.4V12.8z"/>
	<path class="st0" d="M336,45.5l-8.4-25.4l-8.5,25.4h-6.6L300,12.8h6.8l8.9,25.4l8.4-25.4h7.3l8,25.4l8.8-25.4h6.8l-12.4,32.8H336z"
		/>
	<path class="st0" d="M357.1,23.6c0.3-3.2,0.9-4.9,2.3-6.6c2.7-3.4,7.4-5.1,14.2-5.1c5.4,0,9.3,0.9,12,2.7c2.3,1.5,3.2,3.8,3.2,7.8
		v14.5c0,3.2,0.8,4.3,3,4.3c0.4,0,0.9-0.1,1.5-0.1v4.4c-1.2,0.4-2,0.5-3.4,0.5c-4.1,0-5.9-1.3-7.2-4.9c-4,3.8-8.1,5.4-14,5.4
		c-7.9,0-12.8-3.7-12.8-9.8c0-3.5,1.9-6.6,5-8c2.4-1.1,3.9-1.4,10.7-2.1c5.8-0.6,6.8-0.7,8.5-1.3c1.8-0.6,2.6-1.6,2.6-3.3
		c0-3.5-2.9-5.1-8.8-5.1c-7,0-9.8,1.8-10.3,6.6H357.1z M382.7,29.2c-3.6,1.1-7.4,1.9-12.6,2.4c-5.8,0.6-7.6,1.7-7.6,4.7
		c0,3.3,2.7,5,7.9,5c4.3,0,7.6-1.1,9.9-3.3c1.9-1.8,2.3-3.1,2.3-6.2V29.2z"/>
	<path class="st0" d="M402.5,12.8v4.9c3.9-4.5,6.2-5.7,10.8-5.7c1.3,0,2.1,0.1,4,0.3v6.4c-1.9-0.5-2.9-0.6-4.3-0.6
		c-3.3,0-6.1,1.1-8.2,3.3c-1.8,1.9-2.3,3.3-2.3,6.2v17.9h-6.4V12.8H402.5z"/>
	<path class="st0" d="M425,31c0.7,6.3,5.4,10.2,12.6,10.2c5.1,0,8.6-2,10.2-6h7c-3.3,7.4-9.1,11.1-17.8,11.1
		c-10.9,0-18.2-6.8-18.2-17.1c0-10.3,7.5-17.4,18.3-17.4c7.8,0,14.2,3.7,16.7,9.8c1.1,2.8,1.6,5.3,1.6,9.4H425z M448.8,26
		c-1.5-5.8-5.8-9-11.8-9c-6,0-10.3,3.3-11.8,9H448.8z"/>
</g>
<g>
	<g>
		<path class="st1" d="M0,0h22.3c6.2,0,8.7,0.4,11.5,1.7c3.4,1.6,5.5,5.4,5.5,10c0,4.2-1.8,7.1-5.6,9.2c5,2.1,7.5,5.6,7.5,10.8
			c0,5.2-2.6,9.7-6.9,11.5c-2.9,1.3-5.4,1.7-11.7,1.7H0V0z M24,18.6c6,0,8.7-2,8.7-6.4c0-4.4-2.8-6.4-8.7-6.4H6.9v10.9
			c0,1.1,0.9,1.9,1.9,1.9H24z M25,39c3.4,0,5.2-0.4,6.7-1.5c1.6-1.2,2.6-3.2,2.6-5.7c0-2.5-0.9-4.5-2.6-5.7
			c-1.5-1.1-3.3-1.5-6.7-1.5H6.9v12.6c0,1.1,0.9,1.9,1.9,1.9H25z"/>
		<path class="st1" d="M52.4,11.7v4.9c4-4.6,6.3-5.8,11-5.8c1.3,0,2.2,0.1,4,0.3v6.5c-1.9-0.5-2.9-0.6-4.4-0.6
			c-3.4,0-6.2,1.1-8.3,3.3c-1.8,1.9-2.4,3.4-2.4,6.3v18.1h-6.5V11.7H52.4z"/>
		<path class="st1" d="M68.9,22.6c0.3-3.2,0.9-5,2.3-6.7c2.7-3.4,7.5-5.2,14.4-5.2c5.4,0,9.4,0.9,12.2,2.8c2.3,1.5,3.2,3.8,3.2,7.9
			v14.7c0,3.2,0.8,4.4,3,4.3c0.4,0,0.9-0.1,1.5-0.1v4.4c-1.2,0.4-2,0.5-3.4,0.5c-4.1,0-6-1.3-7.3-5c-4,3.8-8.2,5.4-14.2,5.4
			c-8,0-12.9-3.8-12.9-9.9c0-3.6,2-6.7,5-8.1c2.4-1.1,3.9-1.4,10.8-2.2c5.9-0.6,6.9-0.7,8.6-1.3c1.8-0.6,2.6-1.6,2.6-3.3
			c0-3.6-2.9-5.2-8.9-5.2c-5.7,0-8.7,1.2-9.8,4.2c-0.6,1.5-2,2.6-3.6,2.6H68.9z M94.8,28.3c-3.6,1.1-7.5,1.9-12.7,2.4
			c-5.8,0.6-7.7,1.7-7.7,4.8c0,3.4,2.7,5.1,8,5.1c4.4,0,7.7-1.1,10-3.4c1.9-1.8,2.4-3.1,2.4-6.3V28.3z"/>
		<path class="st1" d="M121.2,44.8h-1.7c-1.5,0-2.9-0.9-3.5-2.2L102,11.7h3.9c2.3,0,4.4,1.4,5.3,3.5l9.4,22.2l9.7-22.3
			c0.9-2.1,3-3.5,5.3-3.5h3.6l-14.4,30.9C124.1,44,122.7,44.8,121.2,44.8z"/>
		<path class="st1" d="M143.5,30.2c0.7,6.4,5.5,10.3,12.7,10.3c4.1,0,7.1-1.3,9-3.8c1.1-1.4,2.8-2.3,4.6-2.3l3.8,0
			c-3.3,7.5-9.2,11.2-18,11.2c-11,0-18.4-6.9-18.4-17.3c0-10.4,7.6-17.6,18.5-17.6c7.9,0,14.3,3.7,16.9,9.9c1.1,2.8,1.6,5.4,1.6,9.5
			H143.5z M167.6,25.1c-1.5-5.8-5.8-9.1-11.9-9.1c-6.1,0-10.4,3.3-12,9.1H167.6z"/>
	</g>
</g>
<g class="st2">
	<path class="st1" d="M458.6,11.4v0.9h-1.8v4.6h-1.1v-4.6H454v-0.9H458.6z M464.5,16.9l-0.2-3.2c0-0.4,0-0.9,0-1.5h-0.1
		c-0.1,0.5-0.3,1.1-0.5,1.6l-1,3h-1.1l-1-3.1c-0.1-0.4-0.3-1.1-0.4-1.6h-0.1c0,0.5,0,1,0,1.5l-0.2,3.2h-1l0.4-5.5h1.6l0.9,2.7
		c0.1,0.4,0.2,0.8,0.4,1.4h0c0.1-0.5,0.3-1,0.4-1.4l0.9-2.7h1.6l0.4,5.5H464.5z"/>
</g>
</svg>
